#!OML:ASF F:\VICON\USERDATA\INSTALL\rory3\rory3.ASF
:FULLY-SPECIFIED
:DEGREES
177
root 14.9249 18.0453 4.20386 -4.50429 3.20003 5.3487
lowerback 10.5755 1.42996 -4.22509
upperback 1.04204 1.34693 -1.15975
thorax -4.91363 0.739524 0.969365
lowerneck -20.7163 -6.71016 -13.6293
upperneck 28.3904 -7.92866 9.43416
head 14.1497 -3.66966 4.65488
rclavicle -2.61775e-014 1.0138e-014
rhumerus -37.215 -16.0175 -78.9796
rradius 28.821
rwrist 9.28928
rhand -14.0462 10.8041
rfingers 7.12502
rthumb 12.0845 -18.827
lclavicle -2.61775e-014 1.0138e-014
lhumerus -33.5909 8.13633 80.0719
lradius 30.9358
lwrist -5.37692
lhand -17.2683 26.1732
lfingers 7.12502
lthumb 8.97646 55.9623
rfemur -14.7692 -10.9962 17.7752
rtibia 67.0098
rfoot -3.96356 -7.81306
rtoes 15.7674
lfemur -0.342415 1.428 -25.3967
ltibia 9.21531
lfoot -0.588563 -11.2895
ltoes -2.32711
178
root 14.9198 18.0346 4.29767 -4.49496 3.07167 5.19909
lowerback 10.6839 1.38613 -4.09984
upperback 1.05661 1.30307 -1.05844
thorax -4.95614 0.716713 1.00945
lowerneck -20.8598 -6.69232 -13.5892
upperneck 28.3722 -7.88834 9.41289
head 14.1631 -3.6468 4.64475
rclavicle 7.05064e-015 -9.74045e-015
rhumerus -37.2621 -16.0241 -78.9349
rradius 28.8001
rwrist 9.23064
rhand -14.0108 10.5068
rfingers 7.12502
rthumb 12.1187 -19.1222
lclavicle 7.05064e-015 -9.74045e-015
lhumerus -33.2717 7.52001 80.3041
lradius 31.4396
lwrist -4.88182
lhand -17.0148 26.4799
lfingers 7.12502
lthumb 9.22102 56.2583
rfemur -15.4939 -11.0679 18.0208
rtibia 66.4359
rfoot -5.11214 -8.03899
rtoes 15.2862
lfemur -0.797007 1.50897 -25.2273
ltibia 10.771
lfoot -1.55112 -11.0052
ltoes -1.87352
179
root 14.9128 18.017 4.38678 -4.4159 2.96798 5.26759
lowerback 10.7781 1.34171 -4.21902
upperback 1.04341 1.22621 -1.01949
thorax -5.02224 0.682754 1.1266
lowerneck -20.9391 -6.65249 -13.6405
upperneck 28.3142 -7.8253 9.50174
head 14.1525 -3.61104 4.70034
rclavicle 7.4917e-015 8.34896e-015
rhumerus -37.3478 -15.8714 -78.9726
rradius 28.9773
rwrist 8.8889
rhand -13.9049 10.4168
rfingers 7.12502
rthumb 12.2208 -19.2062
lclavicle 7.4917e-015 8.34896e-015
lhumerus -33.0915 7.05628 80.4889
lradius 32.2173
lwrist -4.486
lhand -17.0328 27.1176
lfingers 7.12502
lthumb 9.20365 56.8968
rfemur -16.3168 -11.1234 18.0356
rtibia 65.8271
rfoot -6.0759 -8.3134
rtoes 15.4769
lfemur -1.19899 1.4944 -25.2949
ltibia 12.112
lfoot -2.57144 -10.5907
ltoes -2.27693
180
root 14.9054 17.998 4.47934 -4.30656 2.90156 5.43437
lowerback 10.7882 1.29298 -4.39192
upperback 0.995516 1.13746 -1.04087
thorax -5.07668 0.643907 1.21395
lowerneck -20.8751 -6.57833 -13.6449
upperneck 28.1968 -7.75033 9.60518
head 14.0815 -3.56609 4.75552
rclavicle 1.67725e-016 -6.75868e-015
rhumerus -37.4715 -15.8332 -78.9851
rradius 29.0614
rwrist 8.56677
rhand -13.6547 10.4611
rfingers 7.12502
rthumb 12.462 -19.1473
lclavicle 1.67725e-016 -6.75868e-015
lhumerus -33.039 6.47882 80.6237
lradius 33.0278
lwrist -4.22861
lhand -17.0219 27.6587
lfingers 7.12502
lthumb 9.21426 57.4374
rfemur -17.095 -11.2386 17.9076
rtibia 65.1218
rfoot -6.98071 -8.72247
rtoes 16.3752
lfemur -1.57876 1.50863 -25.4582
ltibia 13.3299
lfoot -3.49001 -10.2731
ltoes -2.94938
181
root 14.8987 17.9813 4.57179 -4.19731 2.92384 5.54865
lowerback 10.7561 1.1955 -4.48751
upperback 1.00529 0.99895 -1.03733
thorax -5.04263 0.577017 1.29312
lowerneck -20.9689 -6.52929 -13.6111
upperneck 28.1775 -7.67759 9.61008
head 14.0804 -3.52784 4.76451
rclavicle -6.52262e-016 -5.76476e-015
rhumerus -37.5076 -15.8225 -78.9968
rradius 29.165
rwrist 8.43867
rhand -13.5986 10.5722
rfingers 7.12502
rthumb 12.5161 -19.0329
lclavicle -6.52262e-016 -5.76476e-015
lhumerus -32.9049 6.15207 80.7254
lradius 33.7743
lwrist -4.20017
lhand -17.3264 27.3305
lfingers 7.12502
lthumb 8.9204 57.122
rfemur -17.821 -11.4882 17.8109
rtibia 64.3212
rfoot -7.85278 -9.29734
rtoes 16.5939
lfemur -1.89393 1.44741 -25.5628
ltibia 14.3479
lfoot -4.13401 -10.0748
ltoes -2.57466
182
root 14.8889 17.965 4.66293 -4.15954 2.80725 5.53303
lowerback 10.8686 1.13394 -4.50508
upperback 0.994024 0.911004 -0.981195
thorax -5.1135 0.535972 1.3733
lowerneck -21.0474 -6.46536 -13.6151
upperneck 28.1798 -7.57564 9.62357
head 14.0833 -3.48075 4.7904
rclavicle 2.67117e-015 1.19271e-014
rhumerus -37.6116 -15.8354 -78.969
rradius 29.3508
rwrist 8.55234
rhand -13.7145 10.6299
rfingers 7.12502
rthumb 12.4044 -18.982
lclavicle 2.67117e-015 1.19271e-014
lhumerus -32.6944 5.98429 80.73
lradius 34.2908
lwrist -4.37741
lhand -17.4125 26.757
lfingers 7.12502
lthumb 8.83731 56.5519
rfemur -18.5278 -11.6095 17.8924
rtibia 63.4291
rfoot -8.886 -10.017
rtoes 14.8683
lfemur -2.04214 1.30526 -25.5111
ltibia 15.1992
lfoot -4.74674 -9.68649
ltoes -1.15966
183
root 14.8799 17.9491 4.75836 -4.12306 2.567 5.61734
lowerback 10.9097 1.12262 -4.5868
upperback 0.955094 0.882003 -0.984146
thorax -5.17704 0.525047 1.41953
lowerneck -20.9242 -6.36464 -13.5403
upperneck 28.0531 -7.45878 9.60838
head 13.9793 -3.4259 4.79004
rclavicle 2.07357e-014 -2.98177e-015
rhumerus -37.7265 -15.8852 -78.9608
rradius 29.4394
rwrist 8.63175
rhand -13.8562 10.4803
rfingers 7.12502
rthumb 12.2678 -19.1399
lclavicle 2.07357e-014 -2.98177e-015
lhumerus -32.5231 5.88072 80.632
lradius 34.7325
lwrist -4.74391
lhand -17.2304 26.6818
lfingers 7.12502
lthumb 9.01303 56.4693
rfemur -19.2233 -11.6515 17.8652
rtibia 62.5097
rfoot -10.0899 -10.7748
rtoes 12.0759
lfemur -2.05251 1.30637 -25.5588
ltibia 15.8684
lfoot -5.37951 -9.31235
ltoes -0.119764
184
root 14.8715 17.9334 4.8505 -4.0652 2.35855 5.77048
lowerback 10.9365 1.1227 -4.70232
upperback 0.94725 0.864574 -1.01082
thorax -5.20067 0.519206 1.4587
lowerneck -20.8826 -6.29461 -13.4414
upperneck 27.9493 -7.38504 9.59077
head 13.9084 -3.38542 4.77622
rclavicle -1.03617e-014 -6.36111e-015
rhumerus -37.7132 -15.9317 -78.9692
rradius 29.5151
rwrist 8.609
rhand -13.8378 10.2954
rfingers 7.12502
rthumb 12.2855 -19.3237
lclavicle -1.03617e-014 -6.36111e-015
lhumerus -32.3562 5.67269 80.6144
lradius 35.2875
lwrist -4.93312
lhand -17.0166 26.608
lfingers 7.12502
lthumb 9.21935 56.3865
rfemur -19.8785 -11.7237 17.7514
rtibia 61.5591
rfoot -11.0294 -11.4354
rtoes 11.637
lfemur -1.99654 1.474 -25.6786
ltibia 16.3599
lfoot -5.96129 -9.09733
ltoes -2.3102
185
root 14.8585 17.9231 4.93627 -3.96808 2.22755 5.98047
lowerback 11.0175 1.08969 -4.94544
upperback 0.946325 0.784796 -1.02897
thorax -5.24531 0.485931 1.58753
lowerneck -21.0644 -6.25373 -13.3012
upperneck 27.9792 -7.32154 9.49464
head 13.9385 -3.35118 4.72404
rclavicle 6.08778e-016 1.51076e-014
rhumerus -37.6933 -16.084 -78.9019
rradius 29.588
rwrist 8.75736
rhand -13.7505 10.3587
rfingers 7.12502
rthumb 12.3697 -19.2553
lclavicle 6.08778e-016 1.51076e-014
lhumerus -31.8319 5.42575 80.6223
lradius 35.2846
lwrist -5.00684
lhand -17.1535 26.2884
lfingers 7.12502
lthumb 9.08726 56.0726
rfemur -20.5872 -11.7933 17.5853
rtibia 60.5455
rfoot -11.7006 -11.9805
rtoes 12.5109
lfemur -1.96677 1.55582 -25.8521
ltibia 16.7317
lfoot -6.31983 -8.9488
ltoes -3.66133
186
root 14.8427 17.9195 5.02634 -3.90523 2.08526 6.17259
lowerback 11.0882 1.0483 -5.20117
upperback 0.918728 0.692723 -1.02511
thorax -5.31129 0.448155 1.74849
lowerneck -21.0813 -6.20615 -13.2575
upperneck 27.9908 -7.23827 9.40897
head 13.9283 -3.32169 4.6972
rclavicle 1.09332e-015 -5.96354e-016
rhumerus -37.7897 -16.1879 -78.7964
rradius 29.6672
rwrist 8.84524
rhand -13.6373 10.6708
rfingers 7.12502
rthumb 12.4788 -18.9366
lclavicle 1.09332e-015 -5.96354e-016
lhumerus -30.9524 4.99794 80.6538
lradius 34.4274
lwrist -4.89534
lhand -17.7372 26.2508
lfingers 7.12502
lthumb 8.52393 56.0588
rfemur -21.1845 -11.8279 17.4639
rtibia 59.4159
rfoot -12.4008 -12.7173
rtoes 12.2256
lfemur -1.86309 1.62766 -25.9965
ltibia 17.0403
lfoot -6.65944 -8.77267
ltoes -3.40543
